<svg width="71" height="65" viewBox="0 0 71 65" fill="none" xmlns="http://www.w3.org/2000/svg">
<path d="M46.4922 8.91944C46.4922 10.5475 45.9814 12.2255 44.8496 13.7837L9.6556 62.6458C9.24497 63.2251 8.7442 63.7645 8.18334 64.2539C1.65331 62.5359 -1.73188 55.8339 2.13406 50.4702L37.3381 1.6081C37.7487 1.02878 38.2395 0.48942 38.8004 0C43.4375 1.21856 46.5022 4.95413 46.5022 8.91944H46.4922Z" fill="#2563EB"/>
<path d="M58.711 33.7197C58.711 35.3478 58.2002 37.0258 57.0685 38.584L39.832 62.6455C39.4214 63.2248 38.9206 63.7641 38.3597 64.2536C31.8297 62.5356 28.4445 55.8335 32.3104 50.4699L49.5669 26.4084C49.9776 25.8291 50.4683 25.2897 51.0292 24.8003C55.6663 26.0188 58.731 29.7544 58.731 33.7197H58.711Z" fill="#2563EB"/>
<path d="M70.3887 55.444C70.0082 57.0321 69.1068 58.5703 67.6345 59.8587L64.5097 62.9551C63.9689 63.4445 63.3479 63.864 62.6869 64.2336C56.7077 61.2771 54.9651 54.0656 60.0128 49.6009L63.1476 46.5046C63.6885 46.0151 64.2894 45.5956 64.9504 45.2261C69.1969 47.3236 71.3202 51.5786 70.3787 55.444H70.3887Z" fill="#2563EB"/>
</svg>
